# xmcd CD database file
#
# Track frame offsets:
#	150
#	13603
#	37605
#	63168
#	86148
#	101767
#	114634
#	136815
#	151773
#	164418
#	177297
#	189500
#	202533
#	243307
#	262509
#	279853
#	305255
#	329802
#	343429
#
# Disc length: 4679 seconds
#
# Revision: 1
# Processed by: cddbd v1.5.2PL0 Copyright (c) Steve Scherf et al.
# Submitted via: CDex 1.51
#
DISCID=f5124513
DTITLE=Ella and Ellington - 2CD Collection Of Over 40 Tracks [CD2)
DYEAR=1900
DGENRE=Jazz
TTITLE0=Sophisticated Lady
TTITLE1=Take The A Train
TTITLE2=Don't Get Around Much Anymore
TTITLE3=Mood Indigo
TTITLE4=Just Squeeze Me
TTITLE5=Indiana
TTITLE6=Tootle For Cootie
TTITLE7=In A Jam
TTITLE8=Crosstown
TTITLE9=Rockabye River
TTITLE10=Just You, Just Me
TTITLE11=Blue Lou
TTITLE12=Satin Doll
TTITLE13=Harlem Speaks
TTITLE14=On The Sunny Side Of The Street
TTITLE15=One O'Clock Jump
TTITLE16=The Mooche
TTITLE17=Caravan
TTITLE18=Do Nothin' TillYou Hear From Me
EXTD=
EXTT0=
EXTT1=
EXTT2=
EXTT3=
EXTT4=
EXTT5=
EXTT6=
EXTT7=
EXTT8=
EXTT9=
EXTT10=
EXTT11=
EXTT12=
EXTT13=
EXTT14=
EXTT15=
EXTT16=
EXTT17=
EXTT18=
PLAYORDER=
